STARTFONT 2.1
FONT -FontForge-Metroclock-Book-R-Normal--21-200-75-75-P-84-ISO10646-1
SIZE 20 75 75
FONTBOUNDINGBOX 13 15 0 0
COMMENT "Generated by fontforge, http://fontforge.sourceforge.net"
STARTPROPERTIES 35
FOUNDRY "FontForge"
FAMILY_NAME "Metroclock"
WEIGHT_NAME "Book"
SLANT "R"
SETWIDTH_NAME "Normal"
ADD_STYLE_NAME ""
PIXEL_SIZE 21
POINT_SIZE 200
RESOLUTION_X 75
RESOLUTION_Y 75
SPACING "P"
AVERAGE_WIDTH 84
CHARSET_REGISTRY "ISO10646"
CHARSET_ENCODING "1"
FONTNAME_REGISTRY ""
CHARSET_COLLECTIONS "ISO10646-1"
FONT_NAME "Metroclock-Regular"
FACE_NAME "Metroclock Regular"
FONT_VERSION "001.001"
FONT_ASCENT 17
FONT_DESCENT 4
UNDERLINE_POSITION -3
UNDERLINE_THICKNESS 2
DEFAULT_CHAR 1
RAW_ASCENT 800
RAW_DESCENT 200
NORM_SPACE 5
RELATIVE_WEIGHT 40
RELATIVE_SETWIDTH 50
SUPERSCRIPT_X 0
SUPERSCRIPT_Y 10
SUPERSCRIPT_SIZE 14
SUBSCRIPT_X 0
SUBSCRIPT_Y 2
SUBSCRIPT_SIZE 14
ENDPROPERTIES
CHARS 16
STARTCHAR .null.dup1
ENCODING 0
SWIDTH 250 0
DWIDTH 5 0
BBX 1 1 0 0
BITMAP
00
ENDCHAR
STARTCHAR CR
ENCODING 13
SWIDTH 333 0
DWIDTH 7 0
BBX 1 1 0 0
BITMAP
00
ENDCHAR
STARTCHAR space
ENCODING 32
SWIDTH 285 0
DWIDTH 6 0
BBX 1 1 0 0
BITMAP
00
ENDCHAR
STARTCHAR zero
ENCODING 48
SWIDTH 666 0
DWIDTH 14 0
BBX 10 14 3 1
BITMAP
FFC0
FFC0
C0C0
C0C0
C0C0
C0C0
C0C0
C0C0
C0C0
C0C0
C0C0
C0C0
FFC0
FFC0
ENDCHAR
STARTCHAR one
ENCODING 49
SWIDTH 666 0
DWIDTH 14 0
BBX 4 14 5 1
BITMAP
F0
F0
30
30
30
30
30
30
30
30
30
30
30
30
ENDCHAR
STARTCHAR two
ENCODING 50
SWIDTH 666 0
DWIDTH 14 0
BBX 10 14 3 1
BITMAP
FFC0
FFC0
00C0
00C0
00C0
00C0
FFC0
FFC0
C000
C000
C000
C000
FFC0
FFC0
ENDCHAR
STARTCHAR three
ENCODING 51
SWIDTH 666 0
DWIDTH 14 0
BBX 10 14 3 1
BITMAP
FFC0
FFC0
00C0
00C0
00C0
00C0
FFC0
FFC0
00C0
00C0
00C0
00C0
FFC0
FFC0
ENDCHAR
STARTCHAR four
ENCODING 52
SWIDTH 666 0
DWIDTH 14 0
BBX 10 14 3 1
BITMAP
C300
C300
C300
C300
C300
C300
C300
C300
C300
FFC0
FFC0
0300
0300
0300
ENDCHAR
STARTCHAR five
ENCODING 53
SWIDTH 666 0
DWIDTH 14 0
BBX 10 14 3 1
BITMAP
FFC0
FFC0
C000
C000
C000
C000
FFC0
FFC0
00C0
00C0
00C0
00C0
FFC0
FFC0
ENDCHAR
STARTCHAR six
ENCODING 54
SWIDTH 666 0
DWIDTH 14 0
BBX 10 14 3 1
BITMAP
FFC0
FFC0
C000
C000
C000
C000
FFC0
FFC0
C0C0
C0C0
C0C0
C0C0
FFC0
FFC0
ENDCHAR
STARTCHAR seven
ENCODING 55
SWIDTH 666 0
DWIDTH 14 0
BBX 10 14 3 1
BITMAP
FFC0
FFC0
00C0
00C0
00C0
00C0
00C0
00C0
00C0
00C0
00C0
00C0
00C0
00C0
ENDCHAR
STARTCHAR eight
ENCODING 56
SWIDTH 666 0
DWIDTH 14 0
BBX 10 14 3 1
BITMAP
FFC0
FFC0
C0C0
C0C0
C0C0
C0C0
FFC0
FFC0
C0C0
C0C0
C0C0
C0C0
FFC0
FFC0
ENDCHAR
STARTCHAR nine
ENCODING 57
SWIDTH 666 0
DWIDTH 14 0
BBX 10 14 3 1
BITMAP
FFC0
FFC0
C0C0
C0C0
C0C0
C0C0
FFC0
FFC0
00C0
00C0
00C0
00C0
FFC0
FFC0
ENDCHAR
STARTCHAR colon
ENCODING 58
SWIDTH 285 0
DWIDTH 6 0
BBX 2 9 3 3
BITMAP
C0
C0
00
00
00
00
00
C0
C0
ENDCHAR
STARTCHAR nbsp
ENCODING 160
SWIDTH 250 0
DWIDTH 5 0
BBX 1 1 0 0
BITMAP
00
ENDCHAR
STARTCHAR .notdef
ENCODING 257
SWIDTH 364 0
DWIDTH 8 0
BBX 5 14 1 0
BITMAP
F8
88
88
88
88
88
88
88
88
88
88
88
88
F8
ENDCHAR
ENDFONT
